<svg xmlns="http://www.w3.org/2000/svg" viewBox="0 0 800 450" preserveAspectRatio="xMidYMid slice" role="img" aria-label="软件分享">
  <defs>
    <linearGradient id="g" x1="0" y1="0" x2="1" y2="1" gradientTransform="rotate(125 0.5 0.5)">
      <stop offset="0" stop-color="hsl(32, 66%, 54%)"/>
      <stop offset="1" stop-color="hsl(66, 72%, 33%)"/>
    </linearGradient>
    <radialGradient id="vig" cx="0.5" cy="0.55" r="0.62">
      <stop offset="0" stop-color="#000" stop-opacity="0.18"/>
      <stop offset="1" stop-color="#000" stop-opacity="0.42"/>
    </radialGradient>
  </defs>
  <rect width="800" height="450" fill="url(#g)"/>
  <line x1="-450" y1="0" x2="0" y2="450" stroke="#fff" stroke-opacity="0.07" stroke-width="14"/><line x1="-404" y1="0" x2="46" y2="450" stroke="#fff" stroke-opacity="0.07" stroke-width="14"/><line x1="-358" y1="0" x2="92" y2="450" stroke="#fff" stroke-opacity="0.07" stroke-width="14"/><line x1="-312" y1="0" x2="138" y2="450" stroke="#fff" stroke-opacity="0.07" stroke-width="14"/><line x1="-266" y1="0" x2="184" y2="450" stroke="#fff" stroke-opacity="0.07" stroke-width="14"/><line x1="-220" y1="0" x2="230" y2="450" stroke="#fff" stroke-opacity="0.07" stroke-width="14"/><line x1="-174" y1="0" x2="276" y2="450" stroke="#fff" stroke-opacity="0.07" stroke-width="14"/><line x1="-128" y1="0" x2="322" y2="450" stroke="#fff" stroke-opacity="0.07" stroke-width="14"/><line x1="-82" y1="0" x2="368" y2="450" stroke="#fff" stroke-opacity="0.07" stroke-width="14"/><line x1="-36" y1="0" x2="414" y2="450" stroke="#fff" stroke-opacity="0.07" stroke-width="14"/><line x1="10" y1="0" x2="460" y2="450" stroke="#fff" stroke-opacity="0.07" stroke-width="14"/><line x1="56" y1="0" x2="506" y2="450" stroke="#fff" stroke-opacity="0.07" stroke-width="14"/><line x1="102" y1="0" x2="552" y2="450" stroke="#fff" stroke-opacity="0.07" stroke-width="14"/><line x1="148" y1="0" x2="598" y2="450" stroke="#fff" stroke-opacity="0.07" stroke-width="14"/><line x1="194" y1="0" x2="644" y2="450" stroke="#fff" stroke-opacity="0.07" stroke-width="14"/><line x1="240" y1="0" x2="690" y2="450" stroke="#fff" stroke-opacity="0.07" stroke-width="14"/><line x1="286" y1="0" x2="736" y2="450" stroke="#fff" stroke-opacity="0.07" stroke-width="14"/><line x1="332" y1="0" x2="782" y2="450" stroke="#fff" stroke-opacity="0.07" stroke-width="14"/><line x1="378" y1="0" x2="828" y2="450" stroke="#fff" stroke-opacity="0.07" stroke-width="14"/><line x1="424" y1="0" x2="874" y2="450" stroke="#fff" stroke-opacity="0.07" stroke-width="14"/><line x1="470" y1="0" x2="920" y2="450" stroke="#fff" stroke-opacity="0.07" stroke-width="14"/><line x1="516" y1="0" x2="966" y2="450" stroke="#fff" stroke-opacity="0.07" stroke-width="14"/><line x1="562" y1="0" x2="1012" y2="450" stroke="#fff" stroke-opacity="0.07" stroke-width="14"/><line x1="608" y1="0" x2="1058" y2="450" stroke="#fff" stroke-opacity="0.07" stroke-width="14"/><line x1="654" y1="0" x2="1104" y2="450" stroke="#fff" stroke-opacity="0.07" stroke-width="14"/><line x1="700" y1="0" x2="1150" y2="450" stroke="#fff" stroke-opacity="0.07" stroke-width="14"/><line x1="746" y1="0" x2="1196" y2="450" stroke="#fff" stroke-opacity="0.07" stroke-width="14"/><line x1="792" y1="0" x2="1242" y2="450" stroke="#fff" stroke-opacity="0.07" stroke-width="14"/>
  <rect width="800" height="450" fill="url(#vig)"/>
  <text x="400" y="250" text-anchor="middle" dominant-baseline="middle"
        font-family="'PingFang SC','Microsoft YaHei','Helvetica Neue',Arial,sans-serif"
        font-size="76" font-weight="800" letter-spacing="0"
        fill="#ffffff" fill-opacity="0.96">软件分享</text>
  <text x="400" y="297.12" text-anchor="middle" dominant-baseline="middle"
        font-family="'Helvetica Neue',Arial,sans-serif" font-size="15" font-weight="600"
        letter-spacing="6" fill="#ffffff" fill-opacity="0.7">QICAIYUN</text>
</svg>